HIERARCHY
ROOT Hips
{
	OFFSET 0.00 0.00 0.00
	CHANNELS 6 Xposition Yposition Zposition Xrotation Yrotation Zrotation
	JOINT Spine
	{
		OFFSET 0.00000 7.06766 0.00000
		CHANNELS 3 Xrotation Yrotation Zrotation
		JOINT Head
		{
			OFFSET 0.00000 15.03989 0.00000
			CHANNELS 3 Xrotation Yrotation Zrotation
			End Site
			{
				OFFSET 0.00000 4.52755 0.00000
			}
		}
		JOINT LeftShoulder
		{
			OFFSET 0.00000 10.53037 0.00000
			CHANNELS 3 Xrotation Yrotation Zrotation
			JOINT LeftArm
			{
				OFFSET 7.02886 0.00000 0.00000
				CHANNELS 3 Xrotation Yrotation Zrotation
				JOINT LeftForeArm
				{
					OFFSET 10.79770 0.00000 0.00000
					CHANNELS 3 Yrotation Zrotation Xrotation
					JOINT LeftHand
					{
						OFFSET 7.90744 0.00000 0.00000
						CHANNELS 3 Xrotation Yrotation Zrotation
						JOINT LeftHandThumb1
						{
							OFFSET 0.00000 0.00000 0.00000
							CHANNELS 3 Xrotation Zrotation Yrotation
							End Site
							{
								OFFSET 0.00000 0.00000 3.93700
							}
						}
						End Site
						{
							OFFSET 3.93700 0.00000 0.00000
						}
					}
				}
			}
		}
		JOINT RightShoulder
		{
			OFFSET 0.00000 10.53037 0.00000
			CHANNELS 3 Xrotation Yrotation Zrotation
			JOINT RightArm
			{
				OFFSET -7.02886 0.00000 0.00000
				CHANNELS 3 Xrotation Yrotation Zrotation
				JOINT RightForeArm
				{
					OFFSET -10.79770 0.00000 0.00000
					CHANNELS 3 Yrotation Zrotation Xrotation
					JOINT RightHand
					{
						OFFSET -7.90744 0.00000 0.00000
						CHANNELS 3 Xrotation Yrotation Zrotation
						JOINT RightHandThumb1
						{
							OFFSET 0.00000 0.00000 0.00000
							CHANNELS 3 Xrotation Zrotation Yrotation
							End Site
							{
								OFFSET 0.00000 0.00000 3.93700
							}
						}
						End Site
						{
							OFFSET -3.93700 0.00000 0.00000
						}
					}
				}
			}
		}
	}
	JOINT LeftUpLeg
	{
		OFFSET 4.01300 0.00000 0.00000
		CHANNELS 3 Xrotation Yrotation Zrotation
		JOINT LeftLeg
		{
			OFFSET 0.00000 -16.89976 0.00000
			CHANNELS 3 Xrotation Yrotation Zrotation
			JOINT LeftFoot
			{
				OFFSET 0.00000 -17.38918 0.00000
				CHANNELS 3 Xrotation Yrotation Zrotation
				JOINT LeftToeBase
				{
					OFFSET 0.00000 -1.27456 4.75673
					CHANNELS 3 Xrotation Yrotation Zrotation
					End Site
					{
						OFFSET 0.00000 0.00000 2.95275
					}
				}
			}
		}
	}
	JOINT RightUpLeg
	{
		OFFSET -4.01300 0.00000 0.00000
		CHANNELS 3 Xrotation Yrotation Zrotation
		JOINT RightLeg
		{
			OFFSET 0.00000 -16.89976 0.00000
			CHANNELS 3 Xrotation Yrotation Zrotation
			JOINT RightFoot
			{
				OFFSET 0.00000 -17.38918 0.00000
				CHANNELS 3 Xrotation Yrotation Zrotation
				JOINT RightToeBase
				{
					OFFSET 0.00000 -1.27456 4.75673
					CHANNELS 3 Xrotation Yrotation Zrotation
					End Site
					{
						OFFSET 0.00000 0.00000 2.95275
					}
				}
			}
		}
	}
}
MOTION
Frames: 22
Frame Time: 0.008333
 18.8565 35.5220 -20.8283 172.7393 -2.8179 178.4175 -17.9713 -0.4031 0.8507 10.1155 -1.4164 -0.4330 -39.1418 -1.7460 15.4560 7.8313 -7.1983 -7.9791 1.7873 0.0000 11.3952 1.0856 8.9345 -6.9566 33.1476 -0.0000 26.2537 -2.6582 -9.2461 -12.4366 -40.7140 1.0907 8.4997 3.6546 -0.0000 35.6645 0.9833 -4.1673 13.2890 32.8623 0.0000 -24.3270 -0.1169 8.8974 2.2628 -6.6335 -0.0000 0.0000 -17.7157 28.8610 5.2758 27.6995 0.0000 -0.0000 -1.2404 -12.8393 -0.3728 -3.3497 -0.0000 -0.0000 -16.1242 -26.7521 1.5859 25.7091 -0.0000 0.0000
 18.8578 35.5221 -20.8312 172.7356 -2.8159 178.4139 -17.9850 -0.4028 0.8537 10.1133 -1.4096 -0.4644 -39.1516 -1.7482 15.4806 7.8393 -7.1855 -7.9580 1.7704 0.0000 11.3984 1.0891 8.9757 -6.9470 33.1476 -0.0000 26.2537 -2.6457 -9.2685 -12.4488 -40.7302 1.1129 8.5082 3.6762 -0.0000 35.6312 0.9860 -4.1495 13.3798 32.8623 0.0000 -24.3270 -0.1174 8.8956 2.2671 -6.6296 -0.0000 -0.0000 -17.6462 28.8832 5.1625 27.4232 -0.0000 0.0000 -1.2409 -12.8348 -0.3684 -3.3457 0.0000 0.0000 -16.1221 -26.7493 1.5846 25.6533 -0.0000 0.0000
 18.8588 35.5219 -20.8342 172.7367 -2.8088 178.4160 -17.9964 -0.3937 0.8566 10.1166 -1.3955 -0.5025 -39.1699 -1.7480 15.4916 7.8250 -7.1779 -7.9298 1.7690 0.0000 11.4559 1.0880 8.9831 -6.9346 33.1476 -0.0000 26.2537 -2.6576 -9.2810 -12.4710 -40.7233 1.1262 8.5238 3.6651 -0.0000 35.6018 0.9907 -4.2283 13.1993 32.8623 0.0000 -24.3270 -0.1116 8.8864 2.2678 -6.6255 0.0000 0.0000 -17.6546 28.8973 5.1596 27.4155 -0.0000 -0.0000 -1.2391 -12.8113 -0.3693 -3.3382 0.0000 -0.0000 -16.1411 -26.7501 1.5554 25.6581 -0.0000 0.0000
 18.8600 35.5216 -20.8383 172.7393 -2.8023 178.4092 -18.0090 -0.3910 0.8710 10.1339 -1.3973 -0.5546 -39.1826 -1.7503 15.5040 7.8210 -7.1625 -7.8959 1.7738 0.0000 11.4770 1.0915 8.9846 -6.9555 33.1476 -0.0000 26.2537 -2.6326 -9.2820 -12.4844 -40.7357 1.1248 8.4990 3.6876 -0.0000 35.6514 0.9976 -4.2604 13.1918 32.8623 0.0000 -24.3270 -0.1087 8.9049 2.2801 -6.6187 0.0000 -0.0000 -17.7309 28.8606 5.2849 27.6728 0.0000 -0.0000 -1.2350 -12.8670 -0.3552 -3.3314 -0.0000 -0.0000 -16.1364 -26.7139 1.5733 25.6790 0.0000 -0.0000
 18.8610 35.5215 -20.8410 172.7372 -2.7937 178.4139 -18.0242 -0.3888 0.8680 10.1318 -1.3728 -0.5818 -39.1709 -1.7339 15.5277 7.7774 -7.1586 -7.8635 1.7791 0.0000 11.4644 1.0890 8.9920 -6.9340 33.1476 -0.0000 26.2537 -2.6660 -9.2690 -12.4904 -40.7329 1.1335 8.4617 3.6888 -0.0000 35.7342 0.9875 -4.2040 13.2314 32.8623 0.0000 -24.3270 -0.1028 8.9124 2.2756 -6.6223 -0.0000 -0.0000 -17.6679 28.8853 5.1678 27.4353 0.0000 -0.0000 -1.2371 -12.8478 -0.3575 -3.3269 -0.0000 -0.0000 -16.1519 -26.7290 1.5456 25.6844 0.0000 -0.0000
 18.8623 35.5212 -20.8441 172.7281 -2.7870 178.4097 -18.0518 -0.3864 0.8784 10.1396 -1.3647 -0.6220 -39.1677 -1.7256 15.5419 7.7779 -7.1551 -7.8295 1.7788 0.0000 11.4700 1.0919 9.0415 -6.9149 33.1476 -0.0000 26.2537 -2.6836 -9.2692 -12.5090 -40.6904 1.1420 8.4438 3.7051 -0.0000 35.6858 0.9898 -4.2195 13.2144 32.8623 0.0000 -24.3270 -0.1037 8.9098 2.2833 -6.6277 -0.0000 0.0000 -17.7319 28.8663 5.2795 27.6765 0.0000 0.0000 -1.2374 -12.8167 -0.3498 -3.3304 -0.0000 0.0000 -16.1050 -26.7888 1.6520 25.4226 0.0000 -0.0000
 18.8628 35.5211 -20.8474 172.7258 -2.7916 178.4145 -18.0667 -0.3991 0.8747 10.1426 -1.3429 -0.6592 -39.1853 -1.7180 15.5637 7.7616 -7.1403 -7.7975 1.7741 0.0000 11.5135 1.0896 9.0462 -6.8974 33.1476 -0.0000 26.2537 -2.6955 -9.2641 -12.5205 -40.7009 1.1495 8.4238 3.7012 -0.0000 35.7054 0.9911 -4.2351 13.1839 32.8623 0.0000 -24.3270 -0.1019 8.9055 2.2777 -6.6246 0.0000 0.0000 -17.6728 28.8955 5.1688 27.4534 -0.0000 -0.0000 -1.2354 -12.8423 -0.3549 -3.3314 0.0000 0.0000 -16.1454 -26.7459 1.5741 25.5878 0.0000 -0.0000
 18.8641 35.5210 -20.8504 172.7208 -2.7876 178.4086 -18.0872 -0.4026 0.8868 10.1432 -1.3244 -0.6992 -39.1902 -1.7055 15.5849 7.7307 -7.1304 -7.7709 1.7628 0.0000 11.5246 1.0913 9.0748 -6.8863 33.1476 -0.0000 26.2537 -2.6913 -9.2676 -12.5244 -40.7227 1.1688 8.4002 3.6913 -0.0000 35.7111 0.9924 -4.2591 13.1295 32.8623 0.0000 -24.3270 -0.1017 8.9083 2.2854 -6.6253 0.0000 0.0000 -17.6746 28.8950 5.1627 27.4332 -0.0000 -0.0000 -1.2394 -12.8409 -0.3468 -3.3217 -0.0000 -0.0000 -16.1585 -26.7367 1.5592 25.6315 0.0000 -0.0000
 18.8645 35.5210 -20.8544 172.7183 -2.7812 178.4043 -18.1063 -0.4027 0.9004 10.1461 -1.3027 -0.7378 -39.1880 -1.6880 15.6110 7.7201 -7.1333 -7.7509 1.7630 0.0000 11.4961 1.0834 9.0933 -6.8233 33.1476 -0.0000 26.2537 -2.6822 -9.2810 -12.5346 -40.7093 1.1964 8.3865 3.6908 -0.0000 35.6752 0.9961 -4.2724 13.1374 32.8623 0.0000 -24.3270 -0.0968 8.9155 2.2895 -6.6282 0.0000 0.0000 -17.6804 28.9025 5.1615 27.4159 -0.0000 0.0000 -1.2465 -12.8805 -0.3414 -3.3022 0.0000 -0.0000 -16.1687 -26.7019 1.6003 25.6834 -0.0000 -0.0000
 18.8648 35.5206 -20.8579 172.7178 -2.7873 178.4059 -18.1231 -0.4168 0.9044 10.1489 -1.2829 -0.7787 -39.1923 -1.6813 15.6214 7.7366 -7.1189 -7.7032 1.7663 0.0000 11.4591 1.0819 9.0887 -6.8177 33.1476 -0.0000 26.2537 -2.7083 -9.2669 -12.5560 -40.6639 1.1905 8.3631 3.7138 -0.0000 35.6834 1.0002 -4.2990 13.1107 32.8623 0.0000 -24.3270 -0.0936 8.9112 2.2887 -6.6260 -0.0000 0.0000 -17.6868 28.9017 5.1533 27.4187 -0.0000 0.0000 -1.2419 -12.8983 -0.3427 -3.2987 -0.0000 -0.0000 -16.1785 -26.6900 1.5854 25.6949 0.0000 0.0000
 18.8657 35.5201 -20.8610 172.7145 -2.7814 178.4047 -18.1389 -0.4208 0.9095 10.1411 -1.2667 -0.8054 -39.1873 -1.6589 15.6472 7.7201 -7.1211 -7.6701 1.7584 0.0000 11.4658 1.0831 9.0995 -6.8170 33.1476 -0.0000 26.2537 -2.6979 -9.2796 -12.5631 -40.6543 1.2147 8.3542 3.7052 -0.0000 35.6411 0.9985 -4.3061 13.0688 32.8623 0.0000 -24.3270 -0.0921 8.9130 2.2916 -6.6241 0.0000 0.0000 -17.7002 28.9058 5.1559 27.4212 -0.0000 0.0000 -1.2426 -12.8948 -0.3386 -3.2956 0.0000 -0.0000 -16.1872 -26.6960 1.5907 25.6161 0.0000 -0.0000
 18.8668 35.5198 -20.8640 172.7118 -2.7861 178.3991 -18.1519 -0.4281 0.9200 10.1342 -1.2455 -0.8433 -39.2018 -1.6546 15.6601 7.7650 -7.1100 -7.6266 1.7496 0.0000 11.4109 1.0853 9.1274 -6.8101 33.1476 -0.0000 26.2537 -2.7051 -9.2814 -12.5703 -40.6360 1.2196 8.3230 3.7177 -0.0000 35.6465 1.0026 -4.3383 13.0261 32.8623 0.0000 -24.3270 -0.0916 8.9117 2.3020 -6.6268 0.0000 0.0000 -17.7687 28.8783 5.2859 27.6737 -0.0000 0.0000 -1.2425 -12.9162 -0.3317 -3.2875 -0.0000 0.0000 -16.1914 -26.6735 1.5829 25.6567 -0.0000 0.0000
 18.8669 35.5195 -20.8678 172.7091 -2.7863 178.4027 -18.1714 -0.4288 0.9209 10.1359 -1.2208 -0.8673 -39.2013 -1.6461 15.6875 7.7441 -7.1006 -7.6063 1.7669 0.0000 11.3839 1.0668 9.0735 -6.7342 33.1476 -0.0000 26.2537 -2.6813 -9.2985 -12.5834 -40.6092 1.2218 8.3147 3.7425 -0.0000 35.6670 1.0055 -4.3625 12.9928 32.8623 0.0000 -24.3270 -0.0904 8.9104 2.2996 -6.6192 -0.0000 -0.0000 -17.7729 28.8743 5.2826 27.6865 0.0000 -0.0000 -1.2394 -12.9041 -0.3364 -3.2856 -0.0000 0.0000 -16.2036 -26.6758 1.5699 25.6482 0.0000 -0.0000
 18.8676 35.5191 -20.8709 172.7077 -2.7859 178.4061 -18.1846 -0.4345 0.9193 10.1279 -1.2072 -0.8954 -39.2035 -1.6273 15.7219 7.7015 -7.0902 -7.5896 1.7570 0.0000 11.4079 1.0565 9.1284 -6.6307 33.1476 -0.0000 26.2537 -2.6605 -9.3032 -12.5971 -40.6174 1.2051 8.3048 3.7676 -0.0000 35.6550 1.0082 -4.3945 12.9347 32.8623 0.0000 -24.3270 -0.0846 8.9036 2.2947 -6.6189 0.0000 0.0000 -17.7184 28.9044 5.1713 27.4427 0.0000 -0.0000 -1.2389 -12.9047 -0.3359 -3.2832 0.0000 0.0000 -16.2170 -26.6916 1.5576 25.6902 -0.0000 0.0000
 18.8684 35.5188 -20.8743 172.7050 -2.7884 178.4090 -18.2000 -0.4341 0.9203 10.1167 -1.1900 -0.9173 -39.1799 -1.6071 15.7422 7.6430 -7.0845 -7.5627 1.7651 0.0000 11.4280 1.0536 9.1328 -6.6094 33.1476 -0.0000 26.2537 -2.6682 -9.3346 -12.6071 -40.5820 1.2379 8.3042 3.7521 -0.0000 35.6469 1.0109 -4.4306 12.8664 32.8623 0.0000 -24.3270 -0.0865 8.8987 2.2944 -6.6116 -0.0000 -0.0000 -17.7199 28.9132 5.1639 27.4067 -0.0000 0.0000 -1.2262 -12.8649 -0.3397 -3.2991 0.0000 0.0000 -16.2101 -26.7168 1.5483 25.6129 0.0000 -0.0000
 18.8690 35.5183 -20.8777 172.7034 -2.7942 178.4089 -18.2159 -0.4282 0.9246 10.1113 -1.2068 -0.9475 -39.1816 -1.6088 15.7531 7.6258 -7.0649 -7.5373 1.7651 0.0000 11.4653 1.0504 9.1197 -6.5985 33.1476 -0.0000 26.2537 -2.6498 -9.3547 -12.6210 -40.5553 1.2235 8.2886 3.7707 -0.0000 35.6597 1.0087 -4.4436 12.8030 32.8623 0.0000 -24.3270 -0.0844 8.8938 2.2957 -6.6096 -0.0000 0.0000 -17.7284 28.9132 5.1677 27.4237 -0.0000 -0.0000 -1.2210 -12.8657 -0.3388 -3.2984 0.0000 0.0000 -16.2359 -26.7218 1.5432 25.6648 0.0000 0.0000
 18.8689 35.5180 -20.8812 172.7036 -2.7956 178.4073 -18.2296 -0.4378 0.9326 10.1088 -1.1852 -0.9731 -39.1727 -1.5876 15.7792 7.6186 -7.0505 -7.5124 1.7610 0.0000 11.4869 1.0420 9.0688 -6.5824 33.1476 -0.0000 26.2537 -2.6508 -9.3467 -12.6339 -40.4266 1.2075 8.2568 3.8135 -0.0000 35.5755 0.9971 -4.3685 12.8711 32.8623 0.0000 -24.3270 -0.0786 8.8944 2.2965 -6.6119 0.0000 0.0000 -17.7278 28.9136 5.1633 27.3933 -0.0000 0.0000 -1.2168 -12.8759 -0.3371 -3.2977 -0.0000 0.0000 -16.2302 -26.7063 1.5528 25.8154 -0.0000 -0.0000
 18.8695 35.5174 -20.8846 172.7025 -2.7955 178.4061 -18.2440 -0.4356 0.9385 10.0909 -1.1738 -0.9943 -39.1594 -1.5685 15.7941 7.5962 -7.0450 -7.4793 1.7633 0.0000 11.5018 1.0393 9.0546 -6.5754 33.1476 -0.0000 26.2537 -2.6382 -9.3786 -12.6483 -40.5645 1.2007 8.2739 3.7916 -0.0000 35.7169 0.9839 -4.3347 12.8016 32.8623 0.0000 -24.3270 -0.0753 8.8907 2.2991 -6.6084 -0.0000 -0.0000 -17.7433 28.9125 5.1822 27.4113 0.0000 -0.0000 -1.2144 -12.8691 -0.3352 -3.2884 0.0000 0.0000 -16.2420 -26.7173 1.5438 25.6332 -0.0000 0.0000
 18.8697 35.5173 -20.8874 172.6978 -2.8025 178.4089 -18.2611 -0.4386 0.9407 10.0939 -1.1566 -1.0274 -39.1583 -1.5490 15.8013 7.6161 -7.0425 -7.4419 1.7493 0.0000 11.4781 1.0431 9.1566 -6.5271 33.1476 -0.0000 26.2537 -2.6272 -9.4079 -12.6549 -40.5407 1.2094 8.2702 3.7899 -0.0000 35.7066 0.9813 -4.3385 12.7579 32.8623 0.0000 -24.3270 -0.0739 8.8714 2.2973 -6.6096 -0.0000 -0.0000 -17.7448 28.9277 5.1663 27.3942 -0.0000 0.0000 -1.2197 -12.8688 -0.3391 -3.2780 0.0000 0.0000 -16.2625 -26.7272 1.5391 25.6612 0.0000 -0.0000
 18.8706 35.5168 -20.8903 172.6953 -2.8031 178.4050 -18.2741 -0.4290 0.9481 10.0758 -1.1635 -1.0392 -39.1719 -1.5420 15.8108 7.6160 -7.0335 -7.4131 1.7488 0.0000 11.4733 1.0376 9.1419 -6.5031 33.1476 -0.0000 26.2537 -2.6257 -9.4276 -12.6535 -40.4929 1.1954 8.2436 3.8221 -0.0000 35.6795 0.9895 -4.3799 12.7439 32.8623 0.0000 -24.3270 -0.0757 8.8875 2.3049 -6.6074 -0.0000 0.0000 -17.8125 28.8834 5.2840 27.6685 -0.0000 0.0000 -1.2186 -12.8604 -0.3329 -3.2738 -0.0000 -0.0000 -16.2833 -26.7394 1.5147 25.7025 0.0000 -0.0000
 18.8712 35.5166 -20.8931 172.6944 -2.8094 178.4080 -18.2873 -0.4352 0.9451 10.0792 -1.1421 -1.0560 -39.1729 -1.5239 15.8169 7.6307 -7.0187 -7.3723 1.7319 0.0000 11.4824 1.0341 9.1118 -6.5025 33.1476 -0.0000 26.2537 -2.6154 -9.4482 -12.6541 -40.4498 1.1873 8.2452 3.8419 -0.0000 35.6699 0.9908 -4.4103 12.6743 32.8623 0.0000 -24.3270 -0.0742 8.8878 2.3002 -6.6040 0.0000 -0.0000 -17.7538 28.9108 5.1821 27.4087 0.0000 -0.0000 -1.2157 -12.8520 -0.3351 -3.2704 -0.0000 -0.0000 -16.2863 -26.7558 1.5205 25.6345 -0.0000 0.0000
 18.8715 35.5162 -20.8955 172.6868 -2.8140 178.4104 -18.3062 -0.4422 0.9422 10.0749 -1.1262 -1.0616 -39.1607 -1.4887 15.8369 7.6287 -7.0208 -7.3453 1.7208 0.0000 11.5043 1.0336 9.0867 -6.5175 33.1476 -0.0000 26.2537 -2.5979 -9.4559 -12.6501 -40.4199 1.1587 8.2344 3.8737 -0.0000 35.7019 0.9924 -4.4379 12.6189 32.8623 0.0000 -24.3270 -0.0790 8.8828 2.2974 -6.5999 0.0000 -0.0000 -17.7641 28.9010 5.1814 27.4258 -0.0000 0.0000 -1.2263 -12.8617 -0.3389 -3.2571 0.0000 -0.0000 -16.2939 -26.7390 1.5049 25.6418 -0.0000 0.0000
